<?xml version="1.0" standalone="no"?>
<!DOCTYPE svg PUBLIC "-//W3C//DTD SVG 20010904//EN"
 "http://www.w3.org/TR/2001/REC-SVG-20010904/DTD/svg10.dtd">
<svg version="1.0" xmlns="http://www.w3.org/2000/svg"
 width="300.000000pt" height="174.000000pt" viewBox="0 0 300.000000 174.000000"
 preserveAspectRatio="xMidYMid meet">
<metadata>
Created by potrace 1.10, written by Peter Selinger 2001-2011
</metadata>
<g transform="translate(0.000000,174.000000) scale(0.100000,-0.100000)"
fill="#000000" stroke="none">
<path d="M0 870 l0 -870 1500 0 1500 0 0 870 0 870 -1500 0 -1500 0 0 -870z
m1200 610 c251 -33 503 -145 765 -342 l105 -79 64 46 c137 97 278 145 434 145
88 0 232 -24 232 -38 0 -4 -25 -20 -56 -36 -123 -64 -250 -215 -270 -321 -7
-36 -8 -38 -15 -15 -18 68 26 194 101 289 l43 54 -59 -8 c-163 -20 -301 -97
-416 -234 l-37 -43 -100 76 c-228 171 -477 289 -721 342 -87 18 -325 29 -387
17 l-43 -8 30 -45 c45 -67 81 -189 87 -297 3 -51 9 -93 13 -93 4 0 38 12 76
26 401 151 815 61 1207 -263 l77 -64 43 34 c101 83 261 137 402 137 90 0 175
-9 175 -19 0 -3 -18 -14 -39 -25 -52 -25 -134 -98 -173 -153 -17 -26 -41 -76
-54 -112 l-23 -66 0 62 c-1 73 21 138 69 208 l33 48 -63 -6 c-100 -9 -209 -68
-299 -162 l-71 -75 -67 56 c-265 225 -606 364 -893 364 -75 0 -208 -15 -218
-25 -2 -1 10 -27 26 -56 63 -112 91 -256 77 -394 l-8 -80 -17 100 c-21 122
-49 196 -102 275 -39 59 -93 110 -116 110 -55 0 -279 -143 -397 -252 l-79 -75
34 -57 c19 -31 63 -95 98 -142 55 -74 59 -83 33 -70 -68 36 -230 261 -211 296
23 42 220 216 320 282 122 80 118 73 96 179 -21 97 -74 195 -158 292 l-33 38
-65 -22 c-152 -50 -359 -180 -475 -298 l-49 -51 36 -73 c43 -86 117 -188 164
-224 56 -42 31 -38 -33 5 -76 52 -162 145 -214 232 -41 70 -41 70 -23 97 10
16 61 71 114 123 298 295 671 436 1030 390z m-640 -390 c11 -11 20 -33 20 -50
0 -65 -79 -94 -119 -44 -27 34 -27 62 1 91 27 29 71 30 98 3z m395 -450 c59
-65 -27 -157 -96 -102 -48 40 -17 122 46 122 19 0 39 -8 50 -20z"/>
</g>
</svg>
