<?xml version="1.0" encoding="UTF-8" standalone="no"?>
<!-- Created with Inkscape (http://www.inkscape.org/) -->

<svg
   width="210mm"
   height="297mm"
   viewBox="0 0 210 297"
   version="1.1"
   id="svg1"
   xml:space="preserve"
   inkscape:version="1.3.2 (091e20e, 2023-11-25)"
   sodipodi:docname="logo3.svg"
   xmlns:inkscape="http://www.inkscape.org/namespaces/inkscape"
   xmlns:sodipodi="http://sodipodi.sourceforge.net/DTD/sodipodi-0.dtd"
   xmlns="http://www.w3.org/2000/svg"
   xmlns:svg="http://www.w3.org/2000/svg"><sodipodi:namedview
     id="namedview1"
     pagecolor="#ffffff"
     bordercolor="#000000"
     borderopacity="0.25"
     inkscape:showpageshadow="2"
     inkscape:pageopacity="0.0"
     inkscape:pagecheckerboard="0"
     inkscape:deskcolor="#d1d1d1"
     inkscape:document-units="mm"
     inkscape:zoom="0.92737795"
     inkscape:cx="397.35687"
     inkscape:cy="303.00483"
     inkscape:window-width="1392"
     inkscape:window-height="891"
     inkscape:window-x="1915"
     inkscape:window-y="151"
     inkscape:window-maximized="0"
     inkscape:current-layer="layer1" /><defs
     id="defs1" /><g
     inkscape:label="Layer 1"
     inkscape:groupmode="layer"
     id="layer1"><path
       d="m 87.827525,173.46492 c 30.157365,0 56.493545,-18.37931 71.151565,-34.10425 l 29.27246,22.16458 c 4.06589,3.08055 10.13625,-0.20134 9.09715,-4.91949 l -8.10499,-36.83247 8.10834,-36.835808 c 1.0391,-4.718163 -5.03125,-7.99671 -9.09716,-4.919507 L 158.98243,100.18257 C 144.32441,84.460984 117.98489,66.081654 87.827525,66.081654 c -46.075723,0 -83.4297085,42.953306 -83.4297085,53.691636 0,10.73834 37.3539855,53.69163 83.4297085,53.69163 z m -29.30599,-61.74537 c 4.441317,0 8.044648,3.60741 8.044648,8.05374 0,4.44971 -3.603331,8.05375 -8.044648,8.05375 -4.444661,0 -8.044647,-3.60404 -8.044647,-8.05375 0,-4.44633 3.60333,-8.05374 8.044647,-8.05374 z"
       id="path1"
       style="fill:#000080;fill-opacity:1;stroke-width:0.335383" /><ellipse
       style="fill:#f9f9f9;fill-opacity:1;stroke-width:0.335383"
       id="path4-1"
       cx="45.655594"
       cy="101.55698"
       rx="7.0481253"
       ry="6.6942449" /><g
       id="g4"
       transform="matrix(1.2668737,0,0,1.2683063,-61.875832,7.2160724)"><ellipse
         style="fill:#ff0000;fill-opacity:1;stroke-width:0.264583"
         id="path3"
         cx="97.145538"
         cy="156.77377"
         rx="9.5576372"
         ry="8.1311245" /><path
         style="fill:#ff0000;fill-opacity:1;stroke-width:0.285303"
         d="m 114.77794,199.41532 c -15.376395,-1.27809 -32.374204,-9.25575 -46.056689,-21.61599 -5.648664,-5.10279 -11.171158,-11.80886 -13.438045,-16.31807 -1.920256,-3.81969 -1.434626,-6.44597 2.183358,-11.80759 4.366395,-6.47071 12.325397,-14.22308 20.60232,-20.06742 9.845374,-6.95183 20.491117,-11.49453 31.772616,-13.55784 4.53588,-0.82958 14.66877,-0.89394 19.11528,-0.12141 15.72754,2.7325 30.77279,10.68336 43.66076,23.07312 l 3.28214,3.15526 5.62941,-4.26747 c 3.09618,-2.34711 8.54797,-6.47227 12.11509,-9.16703 l 6.48568,-4.89956 h 1.53193 c 1.87868,0 3.23166,0.80352 4.00304,2.37736 l 0.53225,1.08596 -3.31847,15.06156 -3.31847,15.06156 3.29202,14.94669 c 1.97888,8.98467 3.22698,15.24372 3.12895,15.69133 -0.23084,1.05408 -1.71978,2.4753 -2.99283,2.85671 -1.99146,0.59666 -2.72096,0.22595 -9.17381,-4.6618 -3.34695,-2.53516 -8.76991,-6.6444 -12.05104,-9.13163 l -5.96567,-4.52226 -3.02136,2.98053 c -6.11034,6.02779 -12.31999,10.65176 -20.11414,14.97787 -12.01463,6.66866 -25.73144,9.88027 -37.88432,8.87012 z M 99.367993,163.21921 c 2.700187,-1.38891 4.081457,-4.24667 3.457907,-7.15419 -0.80832,-3.76906 -4.496735,-5.88985 -8.390743,-4.82457 -1.47715,0.4041 -3.597391,2.56129 -4.070948,4.14188 -0.931965,3.11062 0.40213,6.42366 3.130511,7.77418 1.615413,0.79961 4.383196,0.82916 5.873273,0.0627 z"
         id="path2" /></g><ellipse
       style="fill:#f9f9f9;fill-opacity:1;stroke-width:0.335383"
       id="path4"
       cx="47.460472"
       cy="194.83586"
       rx="7.0481253"
       ry="6.6942449" /><ellipse
       style="fill:#f9f9f9;fill-opacity:1;stroke-width:0.264583"
       id="path6"
       ry="8.7017288"
       rx="8.1311245"
       cy="119.68444"
       cx="58.059078" /><path
       style="fill:#000080;fill-opacity:1;stroke-width:0.264583"
       id="path7"
       sodipodi:type="arc"
       sodipodi:cx="58.201729"
       sodipodi:cy="121.82421"
       sodipodi:rx="11.126801"
       sodipodi:ry="10.556196"
       sodipodi:start="0"
       sodipodi:end="6.2657522"
       sodipodi:arc-type="slice"
       d="m 69.328529,121.82421 a 11.126801,10.556196 0 0 1 -11.078307,10.5561 11.126801,10.556196 0 0 1 -11.174871,-10.46409 11.126801,10.556196 0 0 1 10.980901,-10.6473 11.126801,10.556196 0 0 1 11.270587,10.37127 l -11.12511,0.18402 z" /><path
       style="fill:#000080;fill-opacity:1;stroke-width:0.264583"
       id="path8"
       sodipodi:type="arc"
       sodipodi:cx="61.625359"
       sodipodi:cy="118.68587"
       sodipodi:rx="7.7031698"
       sodipodi:ry="11.982709"
       sodipodi:start="0"
       sodipodi:end="5.701118"
       sodipodi:arc-type="slice"
       d="m 69.328528,118.68587 a 7.7031698,11.982709 0 0 1 -6.58618,11.85606 7.7031698,11.982709 0 0 1 -8.496224,-8.41771 7.7031698,11.982709 0 0 1 4.122211,-14.29727 7.7031698,11.982709 0 0 1 9.691696,4.2714 l -6.434672,6.58752 z" /><path
       style="fill:#000080;fill-opacity:1;stroke-width:0.264583"
       id="path9"
       sodipodi:type="arc"
       sodipodi:cx="54.064838"
       sodipodi:cy="112.12392"
       sodipodi:rx="2.9956772"
       sodipodi:ry="3.1383283"
       sodipodi:start="0"
       sodipodi:end="5.701118"
       sodipodi:arc-type="slice"
       d="m 57.060516,112.12392 a 2.9956772,3.1383283 0 0 1 -2.561293,3.10516 2.9956772,3.1383283 0 0 1 -3.304087,-2.20464 2.9956772,3.1383283 0 0 1 1.603082,-3.74453 2.9956772,3.1383283 0 0 1 3.768993,1.1187 l -2.502373,1.72531 z" /></g></svg>
