<?xml version="1.0" standalone="no"?>
<!DOCTYPE svg PUBLIC "-//W3C//DTD SVG 20010904//EN"
 "http://www.w3.org/TR/2001/REC-SVG-20010904/DTD/svg10.dtd">
<svg version="1.0" xmlns="http://www.w3.org/2000/svg"
 width="300.000000pt" height="146.000000pt" viewBox="0 0 300.000000 146.000000"
 preserveAspectRatio="xMidYMid meet">
<metadata>
Created by potrace 1.10, written by Peter Selinger 2001-2011
</metadata>
<g transform="translate(0.000000,146.000000) scale(0.100000,-0.100000)"
fill="#000000" stroke="none">
<path d="M985 1320 c-183 -20 -407 -109 -579 -232 -109 -76 -296 -260 -296
-289 0 -50 142 -228 231 -289 l34 -23 -31 34 c-44 47 -106 143 -141 213 l-28
58 67 62 c120 112 309 228 449 276 l67 23 33 -38 c108 -122 188 -309 164 -383
-3 -12 -37 -41 -75 -66 -82 -54 -225 -173 -295 -245 l-49 -51 22 -45 c35 -72
97 -152 162 -210 23 -21 29 -23 19 -9 -7 12 -47 70 -87 128 -39 59 -72 111
-72 116 0 13 121 118 213 184 104 74 215 136 245 136 35 0 78 -35 122 -100 50
-73 77 -142 100 -250 l18 -85 1 101 c1 118 -21 219 -69 314 -17 34 -29 64 -27
66 11 11 131 24 220 24 272 0 596 -130 854 -341 39 -32 74 -59 77 -59 3 0 36
31 74 68 85 84 181 137 276 152 38 6 71 8 74 6 3 -3 -7 -23 -21 -43 -41 -59
-65 -123 -71 -188 -6 -59 -6 -59 8 -25 33 86 69 140 126 193 34 32 75 64 91
72 16 9 29 19 29 24 0 15 -143 22 -221 11 -126 -18 -236 -62 -317 -127 -42
-34 -43 -34 -65 -16 -13 10 -69 53 -125 95 -358 271 -726 340 -1104 208 -94
-33 -96 -32 -97 48 -2 100 -64 304 -100 326 -6 4 -11 13 -11 21 0 41 347 26
515 -23 223 -65 432 -172 632 -324 l72 -55 83 82 c87 85 142 121 236 155 66
24 182 41 182 28 0 -6 -16 -29 -35 -52 -19 -23 -48 -71 -64 -107 -32 -69 -52
-167 -32 -155 6 4 11 14 11 23 0 59 145 227 243 283 31 17 57 35 57 40 0 14
-44 21 -170 27 -185 8 -305 -27 -461 -134 l-68 -46 -103 76 c-270 199 -520
308 -773 337 -99 11 -117 11 -220 0z"/>
<path d="M533 950 c-35 -14 -46 -45 -29 -79 24 -45 63 -54 96 -21 49 49 -2
126 -67 100z"/>
<path d="M902 497 c-38 -40 -23 -90 30 -102 21 -5 33 -1 52 19 31 31 32 45 5
80 -25 32 -59 33 -87 3z"/>
</g>
</svg>
